<mxfile host="app.diagrams.net" agent="Mozilla/5.0 (Windows NT 10.0; Win64; x64) AppleWebKit/537.36 (KHTML, like Gecko) Chrome/136.0.0.0 Safari/537.36" version="27.0.3">
  <diagram name="Σελίδα-1" id="E4Y5oDpLHOIiz2aEl1_i">
    <mxGraphModel dx="1665" dy="897" grid="1" gridSize="10" guides="1" tooltips="1" connect="1" arrows="1" fold="1" page="1" pageScale="1" pageWidth="1169" pageHeight="1654" math="0" shadow="0">
      <root>
        <mxCell id="0" />
        <mxCell id="1" parent="0" />
        <mxCell id="O1QWVQg_iybxzsVrqvjj-1" value="&lt;font style=&quot;font-size: 14px;&quot;&gt;Απλός Αναγνώστης&lt;/font&gt;" style="shape=umlActor;verticalLabelPosition=bottom;verticalAlign=top;html=1;outlineConnect=0;" parent="1" vertex="1">
          <mxGeometry x="60" y="110" width="30" height="60" as="geometry" />
        </mxCell>
        <mxCell id="Z_NDyVNY8VuIGpRHS7Xl-1" value="Εμφάνιση Ειδικών Προσφορών" style="ellipse;shape=umlControl;whiteSpace=wrap;html=1;" parent="1" vertex="1">
          <mxGeometry x="370" y="73" width="90" height="97" as="geometry" />
        </mxCell>
        <mxCell id="Z_NDyVNY8VuIGpRHS7Xl-2" value="Βάση Δεδομένων" style="ellipse;shape=umlEntity;whiteSpace=wrap;html=1;" parent="1" vertex="1">
          <mxGeometry x="570" y="40" width="80" height="80" as="geometry" />
        </mxCell>
        <mxCell id="Z_NDyVNY8VuIGpRHS7Xl-3" value="" style="shape=umlBoundary;whiteSpace=wrap;html=1;" parent="1" vertex="1">
          <mxGeometry x="210" y="60" width="90" height="80" as="geometry" />
        </mxCell>
        <mxCell id="Z_NDyVNY8VuIGpRHS7Xl-4" value="My Requests" style="text;html=1;align=center;verticalAlign=middle;resizable=0;points=[];autosize=1;strokeColor=none;fillColor=none;" parent="1" vertex="1">
          <mxGeometry x="215" y="35" width="90" height="30" as="geometry" />
        </mxCell>
        <mxCell id="Z_NDyVNY8VuIGpRHS7Xl-10" value="" style="endArrow=none;html=1;rounded=0;entryX=0.233;entryY=0.813;entryDx=0;entryDy=0;entryPerimeter=0;" parent="1" source="O1QWVQg_iybxzsVrqvjj-1" target="Z_NDyVNY8VuIGpRHS7Xl-3" edge="1">
          <mxGeometry relative="1" as="geometry">
            <mxPoint x="340" y="130" as="sourcePoint" />
            <mxPoint x="500" y="130" as="targetPoint" />
          </mxGeometry>
        </mxCell>
        <mxCell id="Z_NDyVNY8VuIGpRHS7Xl-11" value="Επιλογή Ειδικών&lt;div&gt;Προσφορών&lt;/div&gt;" style="text;html=1;align=center;verticalAlign=middle;resizable=0;points=[];autosize=1;strokeColor=none;fillColor=none;" parent="1" vertex="1">
          <mxGeometry x="100" y="93" width="110" height="40" as="geometry" />
        </mxCell>
        <mxCell id="Z_NDyVNY8VuIGpRHS7Xl-12" value="" style="endArrow=none;html=1;rounded=0;entryX=0.029;entryY=0.7;entryDx=0;entryDy=0;entryPerimeter=0;exitX=1.011;exitY=0.35;exitDx=0;exitDy=0;exitPerimeter=0;" parent="1" source="Z_NDyVNY8VuIGpRHS7Xl-3" target="Z_NDyVNY8VuIGpRHS7Xl-1" edge="1">
          <mxGeometry relative="1" as="geometry">
            <mxPoint x="280" y="91" as="sourcePoint" />
            <mxPoint x="381" y="69" as="targetPoint" />
          </mxGeometry>
        </mxCell>
        <mxCell id="Z_NDyVNY8VuIGpRHS7Xl-13" value="" style="endArrow=none;html=1;rounded=0;entryX=0;entryY=0.5;entryDx=0;entryDy=0;exitX=0.943;exitY=0.625;exitDx=0;exitDy=0;exitPerimeter=0;" parent="1" source="Z_NDyVNY8VuIGpRHS7Xl-1" target="Z_NDyVNY8VuIGpRHS7Xl-2" edge="1">
          <mxGeometry relative="1" as="geometry">
            <mxPoint x="311" y="98" as="sourcePoint" />
            <mxPoint x="382" y="119" as="targetPoint" />
          </mxGeometry>
        </mxCell>
        <mxCell id="Z_NDyVNY8VuIGpRHS7Xl-14" value="" style="endArrow=none;html=1;rounded=0;exitX=1;exitY=1;exitDx=0;exitDy=0;exitPerimeter=0;entryX=1.008;entryY=0.972;entryDx=0;entryDy=0;entryPerimeter=0;" parent="1" source="O1QWVQg_iybxzsVrqvjj-1" target="Z_NDyVNY8VuIGpRHS7Xl-15" edge="1">
          <mxGeometry relative="1" as="geometry">
            <mxPoint x="120" y="186.5" as="sourcePoint" />
            <mxPoint x="270" y="220" as="targetPoint" />
          </mxGeometry>
        </mxCell>
        <mxCell id="Z_NDyVNY8VuIGpRHS7Xl-15" value="Προβολή&amp;nbsp; Ειδικών&lt;div&gt;Προσφορών&lt;/div&gt;" style="text;html=1;align=center;verticalAlign=middle;resizable=0;points=[];autosize=1;strokeColor=none;fillColor=none;rotation=15;" parent="1" vertex="1">
          <mxGeometry x="140" y="170" width="120" height="40" as="geometry" />
        </mxCell>
        <mxCell id="Z_NDyVNY8VuIGpRHS7Xl-16" value="" style="shape=umlBoundary;whiteSpace=wrap;html=1;" parent="1" vertex="1">
          <mxGeometry x="255" y="190" width="90" height="80" as="geometry" />
        </mxCell>
        <mxCell id="Z_NDyVNY8VuIGpRHS7Xl-18" value="View Special&amp;nbsp;&lt;div&gt;Offers&lt;/div&gt;" style="text;html=1;align=center;verticalAlign=middle;resizable=0;points=[];autosize=1;strokeColor=none;fillColor=none;" parent="1" vertex="1">
          <mxGeometry x="255" y="150" width="100" height="40" as="geometry" />
        </mxCell>
        <mxCell id="Z_NDyVNY8VuIGpRHS7Xl-19" value="" style="endArrow=none;html=1;rounded=0;entryX=0.956;entryY=0.263;entryDx=0;entryDy=0;entryPerimeter=0;exitX=0.243;exitY=1;exitDx=0;exitDy=0;exitPerimeter=0;" parent="1" source="Z_NDyVNY8VuIGpRHS7Xl-1" target="Z_NDyVNY8VuIGpRHS7Xl-16" edge="1">
          <mxGeometry relative="1" as="geometry">
            <mxPoint x="311" y="98" as="sourcePoint" />
            <mxPoint x="382" y="119" as="targetPoint" />
          </mxGeometry>
        </mxCell>
        <mxCell id="Z_NDyVNY8VuIGpRHS7Xl-22" value="" style="endArrow=none;html=1;rounded=0;" parent="1" edge="1">
          <mxGeometry relative="1" as="geometry">
            <mxPoint x="350" y="233" as="sourcePoint" />
            <mxPoint x="460" y="240" as="targetPoint" />
          </mxGeometry>
        </mxCell>
        <mxCell id="Z_NDyVNY8VuIGpRHS7Xl-23" value="Πληροφορίες&lt;div&gt;Βιβλίου&lt;/div&gt;" style="ellipse;shape=umlControl;whiteSpace=wrap;html=1;" parent="1" vertex="1">
          <mxGeometry x="460" y="200" width="80" height="90" as="geometry" />
        </mxCell>
        <mxCell id="Z_NDyVNY8VuIGpRHS7Xl-24" value="" style="endArrow=none;html=1;rounded=0;entryX=0.313;entryY=0.988;entryDx=0;entryDy=0;entryPerimeter=0;exitX=0.714;exitY=0.125;exitDx=0;exitDy=0;exitPerimeter=0;" parent="1" source="Z_NDyVNY8VuIGpRHS7Xl-23" target="Z_NDyVNY8VuIGpRHS7Xl-2" edge="1">
          <mxGeometry relative="1" as="geometry">
            <mxPoint x="520" y="210" as="sourcePoint" />
            <mxPoint x="644" y="170" as="targetPoint" />
          </mxGeometry>
        </mxCell>
        <mxCell id="Z_NDyVNY8VuIGpRHS7Xl-26" value="" style="shape=umlBoundary;whiteSpace=wrap;html=1;" parent="1" vertex="1">
          <mxGeometry x="240" y="320" width="90" height="80" as="geometry" />
        </mxCell>
        <mxCell id="Z_NDyVNY8VuIGpRHS7Xl-27" value="Book Information" style="text;html=1;align=center;verticalAlign=middle;resizable=0;points=[];autosize=1;strokeColor=none;fillColor=none;" parent="1" vertex="1">
          <mxGeometry x="245" y="290" width="110" height="30" as="geometry" />
        </mxCell>
        <mxCell id="Z_NDyVNY8VuIGpRHS7Xl-28" value="" style="endArrow=none;html=1;rounded=0;entryX=0;entryY=0.338;entryDx=0;entryDy=0;entryPerimeter=0;" parent="1" target="Z_NDyVNY8VuIGpRHS7Xl-26" edge="1">
          <mxGeometry relative="1" as="geometry">
            <mxPoint x="120" y="190" as="sourcePoint" />
            <mxPoint x="210" y="243.5" as="targetPoint" />
          </mxGeometry>
        </mxCell>
        <mxCell id="Z_NDyVNY8VuIGpRHS7Xl-29" value="Προβολή Λεπτομεριών&lt;div&gt;Βιβλίου και Αποδοδχή&amp;nbsp;&lt;/div&gt;" style="text;html=1;align=center;verticalAlign=middle;resizable=0;points=[];autosize=1;strokeColor=none;fillColor=none;rotation=55;" parent="1" vertex="1">
          <mxGeometry x="140" y="260" width="140" height="40" as="geometry" />
        </mxCell>
        <mxCell id="Z_NDyVNY8VuIGpRHS7Xl-30" value="" style="endArrow=none;html=1;rounded=0;exitX=0.571;exitY=1.025;exitDx=0;exitDy=0;exitPerimeter=0;entryX=0.657;entryY=0.2;entryDx=0;entryDy=0;entryPerimeter=0;" parent="1" source="Z_NDyVNY8VuIGpRHS7Xl-23" target="S04QTio0sJF8wM8Y_CvL-12" edge="1">
          <mxGeometry relative="1" as="geometry">
            <mxPoint x="540" y="260" as="sourcePoint" />
            <mxPoint x="495" y="330" as="targetPoint" />
          </mxGeometry>
        </mxCell>
        <mxCell id="Z_NDyVNY8VuIGpRHS7Xl-31" value="&lt;div&gt;&#39;Ελεγχος προσφοράς&lt;/div&gt;" style="ellipse;shape=umlControl;whiteSpace=wrap;html=1;" parent="1" vertex="1">
          <mxGeometry x="410" y="420" width="70" height="80" as="geometry" />
        </mxCell>
        <mxCell id="S04QTio0sJF8wM8Y_CvL-1" value="Αποδοχή Αιτήματος" style="text;html=1;align=center;verticalAlign=middle;resizable=0;points=[];autosize=1;strokeColor=none;fillColor=none;rotation=-15;" parent="1" vertex="1">
          <mxGeometry x="510" y="380" width="130" height="30" as="geometry" />
        </mxCell>
        <mxCell id="S04QTio0sJF8wM8Y_CvL-2" value="Δημιουργία&lt;div&gt;προσφοράς Βιβλίου&lt;/div&gt;" style="ellipse;shape=umlControl;whiteSpace=wrap;html=1;" parent="1" vertex="1">
          <mxGeometry x="645" y="300" width="80" height="87" as="geometry" />
        </mxCell>
        <mxCell id="S04QTio0sJF8wM8Y_CvL-3" value="" style="endArrow=none;html=1;rounded=0;exitX=0.429;exitY=1.013;exitDx=0;exitDy=0;exitPerimeter=0;entryX=0.857;entryY=0.25;entryDx=0;entryDy=0;entryPerimeter=0;" parent="1" source="S04QTio0sJF8wM8Y_CvL-2" target="Z_NDyVNY8VuIGpRHS7Xl-31" edge="1">
          <mxGeometry relative="1" as="geometry">
            <mxPoint x="640" y="210" as="sourcePoint" />
            <mxPoint x="753" y="272" as="targetPoint" />
          </mxGeometry>
        </mxCell>
        <mxCell id="S04QTio0sJF8wM8Y_CvL-4" value="Αίτημα&lt;div&gt;Βιβλίου&lt;/div&gt;" style="ellipse;shape=umlEntity;whiteSpace=wrap;html=1;" parent="1" vertex="1">
          <mxGeometry x="700" y="110" width="80" height="80" as="geometry" />
        </mxCell>
        <mxCell id="S04QTio0sJF8wM8Y_CvL-5" value="" style="endArrow=none;html=1;rounded=0;entryX=0.638;entryY=0.975;entryDx=0;entryDy=0;entryPerimeter=0;" parent="1" source="S04QTio0sJF8wM8Y_CvL-2" target="S04QTio0sJF8wM8Y_CvL-4" edge="1">
          <mxGeometry relative="1" as="geometry">
            <mxPoint x="615" y="275.5" as="sourcePoint" />
            <mxPoint x="700" y="184.5" as="targetPoint" />
          </mxGeometry>
        </mxCell>
        <mxCell id="S04QTio0sJF8wM8Y_CvL-10" value="" style="endArrow=none;html=1;rounded=0;exitX=0.513;exitY=0.989;exitDx=0;exitDy=0;exitPerimeter=0;entryX=1.038;entryY=0.529;entryDx=0;entryDy=0;entryPerimeter=0;" parent="1" source="S04QTio0sJF8wM8Y_CvL-2" target="S04QTio0sJF8wM8Y_CvL-15" edge="1">
          <mxGeometry relative="1" as="geometry">
            <mxPoint x="681.75" y="400" as="sourcePoint" />
            <mxPoint x="380" y="600" as="targetPoint" />
          </mxGeometry>
        </mxCell>
        <mxCell id="S04QTio0sJF8wM8Y_CvL-11" value="" style="endArrow=none;html=1;rounded=0;exitX=0.967;exitY=0.663;exitDx=0;exitDy=0;exitPerimeter=0;entryX=0;entryY=0.7;entryDx=0;entryDy=0;entryPerimeter=0;" parent="1" source="Z_NDyVNY8VuIGpRHS7Xl-26" target="Z_NDyVNY8VuIGpRHS7Xl-31" edge="1">
          <mxGeometry relative="1" as="geometry">
            <mxPoint x="339" y="363" as="sourcePoint" />
            <mxPoint x="475" y="271" as="targetPoint" />
          </mxGeometry>
        </mxCell>
        <mxCell id="S04QTio0sJF8wM8Y_CvL-12" value="Εμφάνιση&lt;div&gt;Αναλυτικών Πληροφοριών&lt;div&gt;&lt;br&gt;&lt;/div&gt;&lt;/div&gt;" style="ellipse;shape=umlControl;whiteSpace=wrap;html=1;" parent="1" vertex="1">
          <mxGeometry x="400" y="300" width="90" height="90" as="geometry" />
        </mxCell>
        <mxCell id="S04QTio0sJF8wM8Y_CvL-13" value="" style="endArrow=none;html=1;rounded=0;exitX=0.989;exitY=0.413;exitDx=0;exitDy=0;exitPerimeter=0;" parent="1" target="S04QTio0sJF8wM8Y_CvL-12" edge="1">
          <mxGeometry relative="1" as="geometry">
            <mxPoint x="329" y="353" as="sourcePoint" />
            <mxPoint x="465" y="261" as="targetPoint" />
          </mxGeometry>
        </mxCell>
        <mxCell id="S04QTio0sJF8wM8Y_CvL-15" value="Εμφάνιση Παραθύρου Επιτυχής προσφοράς" style="ellipse;shape=umlControl;whiteSpace=wrap;html=1;" parent="1" vertex="1">
          <mxGeometry x="360" y="530" width="80" height="87" as="geometry" />
        </mxCell>
        <mxCell id="S04QTio0sJF8wM8Y_CvL-16" value="" style="endArrow=none;html=1;rounded=0;entryX=0.05;entryY=0.402;entryDx=0;entryDy=0;entryPerimeter=0;exitX=1;exitY=0.625;exitDx=0;exitDy=0;exitPerimeter=0;" parent="1" source="S04QTio0sJF8wM8Y_CvL-17" target="S04QTio0sJF8wM8Y_CvL-15" edge="1">
          <mxGeometry relative="1" as="geometry">
            <mxPoint x="240" y="520" as="sourcePoint" />
            <mxPoint x="280" y="550" as="targetPoint" />
          </mxGeometry>
        </mxCell>
        <mxCell id="S04QTio0sJF8wM8Y_CvL-17" value="" style="shape=umlBoundary;whiteSpace=wrap;html=1;" parent="1" vertex="1">
          <mxGeometry x="180" y="470" width="90" height="80" as="geometry" />
        </mxCell>
        <mxCell id="S04QTio0sJF8wM8Y_CvL-18" value="&lt;span style=&quot;text-wrap-mode: nowrap;&quot;&gt;Αποστολή&amp;nbsp;&lt;/span&gt;&lt;div&gt;&lt;span style=&quot;text-wrap-mode: nowrap;&quot;&gt;Ειδοποίησης&lt;br&gt;&lt;/span&gt;&lt;div&gt;&lt;span style=&quot;text-wrap-mode: nowrap;&quot;&gt;στο χρήστη&amp;nbsp;&lt;/span&gt;&lt;/div&gt;&lt;div&gt;&lt;span style=&quot;text-wrap-mode: nowrap;&quot;&gt;με email&lt;/span&gt;&lt;/div&gt;&lt;/div&gt;" style="ellipse;shape=umlControl;whiteSpace=wrap;html=1;" parent="1" vertex="1">
          <mxGeometry x="50" y="440" width="80" height="100" as="geometry" />
        </mxCell>
        <mxCell id="S04QTio0sJF8wM8Y_CvL-19" value="" style="endArrow=none;html=1;rounded=0;" parent="1" source="O1QWVQg_iybxzsVrqvjj-1" edge="1">
          <mxGeometry relative="1" as="geometry">
            <mxPoint x="158.5" y="367" as="sourcePoint" />
            <mxPoint x="230" y="460" as="targetPoint" />
          </mxGeometry>
        </mxCell>
        <mxCell id="S04QTio0sJF8wM8Y_CvL-20" value="Deal Request Complete" style="text;html=1;align=center;verticalAlign=middle;resizable=0;points=[];autosize=1;strokeColor=none;fillColor=none;" parent="1" vertex="1">
          <mxGeometry x="150" y="440" width="150" height="30" as="geometry" />
        </mxCell>
        <mxCell id="S04QTio0sJF8wM8Y_CvL-21" value="" style="endArrow=none;html=1;rounded=0;entryX=0;entryY=0.513;entryDx=0;entryDy=0;entryPerimeter=0;" parent="1" source="S04QTio0sJF8wM8Y_CvL-18" target="S04QTio0sJF8wM8Y_CvL-17" edge="1">
          <mxGeometry relative="1" as="geometry">
            <mxPoint x="140" y="480" as="sourcePoint" />
            <mxPoint x="193" y="563" as="targetPoint" />
          </mxGeometry>
        </mxCell>
        <mxCell id="S04QTio0sJF8wM8Y_CvL-22" value="" style="endArrow=none;html=1;rounded=0;exitX=0.695;exitY=1.03;exitDx=0;exitDy=0;exitPerimeter=0;entryX=0.313;entryY=0.115;entryDx=0;entryDy=0;entryPerimeter=0;" parent="1" source="Z_NDyVNY8VuIGpRHS7Xl-2" target="S04QTio0sJF8wM8Y_CvL-2" edge="1">
          <mxGeometry relative="1" as="geometry">
            <mxPoint x="600" y="207" as="sourcePoint" />
            <mxPoint x="683" y="310" as="targetPoint" />
          </mxGeometry>
        </mxCell>
        <mxCell id="S04QTio0sJF8wM8Y_CvL-23" value="" style="endArrow=none;html=1;rounded=0;strokeColor=#FF3333;" parent="1" target="Z_NDyVNY8VuIGpRHS7Xl-31" edge="1">
          <mxGeometry relative="1" as="geometry">
            <mxPoint x="240" y="620" as="sourcePoint" />
            <mxPoint x="403" y="523" as="targetPoint" />
          </mxGeometry>
        </mxCell>
        <mxCell id="S04QTio0sJF8wM8Y_CvL-24" value="Μη Διαθέσιμη" style="text;html=1;align=center;verticalAlign=middle;resizable=0;points=[];autosize=1;strokeColor=none;fillColor=none;rotation=-45;fontColor=#FF3333;" parent="1" vertex="1">
          <mxGeometry x="300" y="500" width="100" height="30" as="geometry" />
        </mxCell>
        <mxCell id="S04QTio0sJF8wM8Y_CvL-25" value="" style="shape=umlBoundary;whiteSpace=wrap;html=1;strokeColor=#FF3333;" parent="1" vertex="1">
          <mxGeometry x="330" y="680" width="90" height="80" as="geometry" />
        </mxCell>
        <mxCell id="7LlLScnWQhLtCeGO0DfA-2" value="&lt;div&gt;&lt;div&gt;Εμφάνιση παραθύρου αποτυχίας&lt;/div&gt;&lt;/div&gt;" style="ellipse;shape=umlControl;whiteSpace=wrap;html=1;strokeColor=#FF3333;fontColor=#FF3333;" parent="1" vertex="1">
          <mxGeometry x="165" y="600" width="90" height="90" as="geometry" />
        </mxCell>
        <mxCell id="7LlLScnWQhLtCeGO0DfA-3" value="" style="endArrow=none;html=1;rounded=0;strokeColor=#FF3333;entryX=0.033;entryY=0.288;entryDx=0;entryDy=0;entryPerimeter=0;exitX=0.911;exitY=0.822;exitDx=0;exitDy=0;exitPerimeter=0;" parent="1" source="7LlLScnWQhLtCeGO0DfA-2" target="S04QTio0sJF8wM8Y_CvL-25" edge="1">
          <mxGeometry relative="1" as="geometry">
            <mxPoint x="250" y="630" as="sourcePoint" />
            <mxPoint x="426" y="493" as="targetPoint" />
          </mxGeometry>
        </mxCell>
        <mxCell id="7LlLScnWQhLtCeGO0DfA-4" value="Deal Failed" style="text;html=1;align=center;verticalAlign=middle;resizable=0;points=[];autosize=1;strokeColor=none;fillColor=none;fontSize=14;fontColor=#FF3333;" parent="1" vertex="1">
          <mxGeometry x="330" y="650" width="90" height="30" as="geometry" />
        </mxCell>
        <mxCell id="7LlLScnWQhLtCeGO0DfA-5" value="" style="endArrow=none;html=1;rounded=0;strokeColor=#FF3333;entryX=0.957;entryY=0.75;entryDx=0;entryDy=0;entryPerimeter=0;" parent="1" source="7LlLScnWQhLtCeGO0DfA-7" target="Z_NDyVNY8VuIGpRHS7Xl-31" edge="1">
          <mxGeometry relative="1" as="geometry">
            <mxPoint x="600" y="580" as="sourcePoint" />
            <mxPoint x="426" y="493" as="targetPoint" />
          </mxGeometry>
        </mxCell>
        <mxCell id="7LlLScnWQhLtCeGO0DfA-6" value="Διπλότυπη&lt;div&gt;&amp;nbsp;Αποδοχή&lt;/div&gt;" style="text;html=1;align=center;verticalAlign=middle;resizable=0;points=[];autosize=1;strokeColor=none;fillColor=none;fontColor=#FF3333;fontSize=14;rotation=60;" parent="1" vertex="1">
          <mxGeometry x="500" y="530" width="90" height="50" as="geometry" />
        </mxCell>
        <mxCell id="7LlLScnWQhLtCeGO0DfA-7" value="&lt;div&gt;&lt;div&gt;Εμφάνιση παραθύρου αποτυχίας&lt;/div&gt;&lt;/div&gt;" style="ellipse;shape=umlControl;whiteSpace=wrap;html=1;strokeColor=#FF3333;fontColor=#FF3333;" parent="1" vertex="1">
          <mxGeometry x="530" y="590" width="90" height="90" as="geometry" />
        </mxCell>
        <mxCell id="7LlLScnWQhLtCeGO0DfA-8" value="" style="endArrow=none;html=1;rounded=0;strokeColor=#FF3333;entryX=1.006;entryY=0.513;entryDx=0;entryDy=0;entryPerimeter=0;exitX=0.017;exitY=0.774;exitDx=0;exitDy=0;exitPerimeter=0;" parent="1" source="7LlLScnWQhLtCeGO0DfA-7" target="S04QTio0sJF8wM8Y_CvL-25" edge="1">
          <mxGeometry relative="1" as="geometry">
            <mxPoint x="561" y="607" as="sourcePoint" />
            <mxPoint x="487" y="490" as="targetPoint" />
          </mxGeometry>
        </mxCell>
      </root>
    </mxGraphModel>
  </diagram>
</mxfile>
